<?xml version="1.0" encoding="utf-8"?>
<!-- Generator: Adobe Illustrator 16.0.0, SVG Export Plug-In . SVG Version: 6.00 Build 0)  -->
<!DOCTYPE svg PUBLIC "-//W3C//DTD SVG 1.1//EN" "http://www.w3.org/Graphics/SVG/1.1/DTD/svg11.dtd">
<svg version="1.1" id="Layer_1" xmlns="http://www.w3.org/2000/svg" xmlns:xlink="http://www.w3.org/1999/xlink" x="0px" y="0px"
	 width="300px" height="300px" viewBox="0 0 300 300" enable-background="new 0 0 300 300" xml:space="preserve">
<g>
	<path fill="#FE4F00" d="M86.312,266.45c-0.291,0-0.582-0.047-0.873-0.153c-1.336-0.48-2.027-1.95-1.546-3.285
		c17.186-47.664-3.662-87.275-13.683-106.309c-2.73-5.186-4.536-8.614-4.886-10.893c-5.996-38.941-2.148-39.698-0.081-40.107
		c1.805-0.355,5.754-2.2,7.818-3.283c1.258-0.661,2.809-0.17,3.473,1.083c0.659,1.258,0.17,2.809-1.083,3.467
		c-0.548,0.286-4.898,2.543-8.055,3.48c-0.708,4.136,0.915,20.976,3.006,34.576c0.222,1.43,2.139,5.071,4.355,9.286
		c10.361,19.684,31.922,60.645,13.974,110.437C88.349,265.802,87.367,266.45,86.312,266.45z"/>
	<path fill="#FE4F00" d="M83.702,155.241c-1.255,0-2.353-0.923-2.538-2.208c-0.02-0.16-2.363-16.447-3.744-22.665
		c-1.416-6.378-7.562-43.03-7.82-44.586l-0.21-1.27l0.888-0.93c4.37-4.572,14.371,1.303,17.792,4.516
		c1.033,0.972,1.087,2.597,0.121,3.63c-0.979,1.041-2.599,1.08-3.633,0.118c-2.824-2.648-7.369-4.619-9.537-4.826
		c1.354,8.045,6.22,36.847,7.421,42.235c1.421,6.408,3.712,22.377,3.813,23.055c0.2,1.404-0.772,2.703-2.178,2.908
		C83.949,155.236,83.828,155.241,83.702,155.241z"/>
	<path fill="#FE4F00" d="M98.375,155.241c-0.959,0-1.882-0.542-2.323-1.47c-0.296-0.632-7.31-15.57-8.042-27.749
		c-0.698-11.648-4.22-49.501-4.255-49.884l-0.146-1.585l1.349-0.839c0.412-0.256,4.164-2.457,8.309-1.169
		c2.77,0.858,4.923,2.989,6.398,6.338c1.526,3.463,1.921,8.159,2.382,13.595c0.772,9.105,1.731,20.438,8.415,30.732
		c0.767,1.189,0.432,2.78-0.757,3.552c-1.184,0.767-2.779,0.439-3.559-0.76c-7.382-11.375-8.4-23.417-9.217-33.093
		c-0.422-4.978-0.787-9.281-1.966-11.957c-0.843-1.914-1.916-3.088-3.187-3.495c-0.947-0.298-1.953-0.168-2.735,0.057
		c0.723,7.803,3.482,37.964,4.094,48.197c0.673,11.177,7.493,25.714,7.562,25.856c0.609,1.283,0.054,2.816-1.223,3.424
		C99.117,155.162,98.747,155.241,98.375,155.241z"/>
	<path fill="#FE4F00" d="M132.419,269.999c-0.034,0-0.069,0-0.106-0.008c-1.42-0.051-2.518-1.252-2.464-2.668
		c2.042-48.954,18.475-61.503,28.293-69.006c3.891-2.969,5.762-4.493,5.762-6.703c0-8.153,2.955-17.435,5.56-25.62
		c2.624-8.25,5.596-17.587,3.021-20.093c-1.514-1.473-2.794-2.186-3.623-1.978c-2.826,0.794-5.201,10.094-6.941,16.884
		c-2.566,10.022-4.78,18.675-10.283,20.398c-6.441,2.003-12.042-7.174-16.554-14.565c-0.999-1.635-1.887-3.096-2.624-4.124
		c-3.783-5.298-13.242-33.327-13.242-37.907c0-6.777-1.374-36.627-4.269-41.646c-0.553-0.962-1.065-1.147-1.45-1.201
		c-1.319-0.195-3.376,0.991-4.667,1.98c0.415,5.902,2.042,29.744,2.042,40.869c0,11.944,4.782,26.074,4.829,26.217
		c0.461,1.341-0.256,2.802-1.596,3.261c-1.344,0.448-2.807-0.257-3.263-1.599c-0.209-0.609-5.108-15.064-5.108-27.879
		c0-12.297-2.099-41.505-2.124-41.799l-0.086-1.208l0.878-0.836c0.513-0.491,5.162-4.733,9.823-4.091
		c1.5,0.217,3.623,1.038,5.167,3.722c4.274,7.411,4.957,43.858,4.957,44.216c0.04,3.298,8.911,30.2,12.288,34.921
		c0.787,1.105,1.746,2.671,2.826,4.432c2.197,3.599,8.003,13.111,10.632,12.344c2.772-0.87,5.125-10.06,6.839-16.775
		c2.609-10.171,4.858-18.956,10.533-20.555c2.695-0.754,5.604,0.323,8.596,3.241c4.852,4.723,1.811,14.272-1.707,25.331
		c-2.494,7.828-5.317,16.71-5.317,24.066c0,4.849-3.608,7.602-7.781,10.788c-9.103,6.955-24.338,18.586-26.274,65.131
		C134.928,268.919,133.789,269.999,132.419,269.999z"/>
	<path fill="#FE4F00" d="M270.748,204.024c-0.357,0-0.713-0.073-1.061-0.227c-10.842-4.896-26.262-30.395-28.443-47.045
		c-9.25-70.515-37.639-91.042-59.828-95.839c-27.5-5.946-56.494,10.075-63.148,20.774c-0.748,1.208-2.338,1.571-3.54,0.824
		c-1.208-0.75-1.576-2.335-0.826-3.542c7.054-11.345,37.668-29.778,68.596-23.077c23.805,5.147,54.203,26.71,63.844,100.197
		c2.076,15.855,16.948,39.18,25.462,43.022c1.29,0.579,1.866,2.105,1.284,3.4C272.656,203.463,271.725,204.024,270.748,204.024z"/>
	<path fill="#FE4F00" d="M173.334,263.22c-1.288,0-2.422-0.141-3.355-0.432c-6.737-2.07-14.312-10.384-20.398-17.061
		c-2.875-3.161-5.596-6.141-7.347-7.455c-1.134-0.854-1.366-2.459-0.515-3.594c0.858-1.145,2.469-1.366,3.596-0.518
		c2.138,1.601,4.886,4.617,8.065,8.104c5.369,5.893,12.713,13.955,18.109,15.615c3.445,1.055,13.678-1.395,23.272-8.561
		c7.925-5.92,21.171-19.549,20.885-44.285c-0.015-1.421,1.117-2.58,2.538-2.6c0.01,0,0.02,0,0.029,0c1.406,0,2.555,1.135,2.57,2.537
		c0.311,27.014-14.243,41.96-22.947,48.461C189.054,259.995,179.43,263.22,173.334,263.22z"/>
	<path fill="#FE4F00" d="M216.033,177.076c-3.35,0-4.928-1.579-5.592-2.57c-0.787-1.182-0.463-2.775,0.713-3.562
		c1.166-0.782,2.77-0.472,3.562,0.713c0.042,0.063,0.56,0.351,1.783,0.264c4.034-0.296,11.335-4.312,14.536-11.089
		c2.855-6.029,1.778-12.894-3.119-19.841c-4.041-5.724-7.888-8.373-11.432-7.915c-6.299,0.824-11.407,11.136-12.848,15.037
		c-0.49,1.334-1.971,2.015-3.295,1.524c-1.329-0.488-2.012-1.966-1.52-3.3c0.252-0.688,6.356-16.958,16.996-18.357
		c5.613-0.742,11.078,2.649,16.295,10.05c7.613,10.802,6.141,19.555,3.568,24.998c-3.879,8.193-12.609,13.565-18.812,14.017
		C216.58,177.062,216.307,177.076,216.033,177.076z"/>
	<path fill="#FE4F00" d="M224.641,263.236c-0.622,0-1.244-0.225-1.742-0.681c-1.043-0.959-1.107-2.584-0.15-3.628
		c1.023-2.244-4.941-13.765-12.814-24.582c-0.834-1.149-0.582-2.755,0.564-3.593c1.145-0.824,2.755-0.582,3.589,0.564
		c6.772,9.303,17.397,25.711,12.444,31.09C226.023,262.958,225.333,263.236,224.641,263.236z"/>
	<path fill="#FE4F00" d="M63.974,74.735c-0.782,0-1.561-0.36-2.066-1.041c-0.096-0.128-9.639-12.983-16.414-18.601
		c-1.095-0.905-1.246-2.525-0.338-3.618c0.903-1.09,2.518-1.243,3.618-0.335c7.251,6.016,16.86,18.949,17.267,19.499
		c0.841,1.139,0.602,2.748-0.538,3.593C65.042,74.573,64.504,74.735,63.974,74.735z"/>
	<path fill="#FE4F00" d="M90.571,58.646c-1.354,0-2.484-1.053-2.565-2.417c-0.224-3.803-1.504-14.527-4.71-18.424
		c-0.903-1.095-0.747-2.715,0.35-3.618c1.083-0.9,2.71-0.75,3.613,0.353c4.846,5.882,5.786,19.819,5.875,21.39
		c0.086,1.416-0.999,2.629-2.415,2.713C90.672,58.643,90.623,58.646,90.571,58.646z"/>
	<path fill="#FE4F00" d="M116.093,58.646c-0.141,0-0.276-0.01-0.417-0.032c-1.401-0.227-2.353-1.546-2.124-2.947
		c0.096-0.589,2.39-14.526,6.73-24.155c0.587-1.297,2.116-1.862,3.396-1.285c1.295,0.584,1.872,2.104,1.288,3.398
		c-4.064,9.017-6.321,22.727-6.346,22.865C118.421,57.75,117.326,58.646,116.093,58.646z"/>
	<path fill="#FE4F00" d="M51.559,95.021c-0.493,0-0.984-0.138-1.425-0.429c-0.131-0.091-13.552-8.982-21.59-11.308
		c-1.364-0.397-2.148-1.822-1.756-3.184c0.397-1.361,1.833-2.153,3.182-1.753c8.8,2.55,22.438,11.584,23.016,11.967
		c1.179,0.787,1.5,2.38,0.713,3.561C53.204,94.622,52.388,95.021,51.559,95.021z"/>
	<path fill="#FE4F00" d="M47.134,118.466c-0.261,0-0.528-0.04-0.789-0.125c-0.079-0.022-7.942-2.484-16.968-2.079
		c-1.389,0.044-2.625-1.031-2.684-2.449c-0.071-1.418,1.028-2.619,2.444-2.684c10.07-0.471,18.436,2.21,18.791,2.326
		c1.349,0.437,2.087,1.885,1.65,3.236C49.226,117.773,48.217,118.466,47.134,118.466z"/>
	<path fill="#FE4F00" d="M31.424,147.376c-1.184,0-2.245-0.816-2.508-2.015c-0.308-1.386,0.572-2.758,1.956-3.063
		c9.799-2.16,18.53-0.949,18.902-0.893c1.406,0.2,2.377,1.502,2.178,2.905c-0.203,1.406-1.465,2.39-2.911,2.18
		c-0.081-0.015-8.193-1.132-17.064,0.824C31.789,147.356,31.604,147.376,31.424,147.376z"/>
</g>
</svg>
