<?xml version="1.0" encoding="utf-8"?>
<!-- Generator: Adobe Illustrator 16.0.0, SVG Export Plug-In . SVG Version: 6.00 Build 0)  -->
<!DOCTYPE svg PUBLIC "-//W3C//DTD SVG 1.1//EN" "http://www.w3.org/Graphics/SVG/1.1/DTD/svg11.dtd">
<svg version="1.1" id="Layer_1" xmlns="http://www.w3.org/2000/svg" xmlns:xlink="http://www.w3.org/1999/xlink" x="0px" y="0px"
	 width="300px" height="300px" viewBox="0 0 300 300" enable-background="new 0 0 300 300" xml:space="preserve">
<g>
	<g>
		<path fill="#FFFFFF" d="M78.725,148.579H19.187c-3.589,0-6.525,2.935-6.525,6.526v129.352c0,3.59,2.937,6.526,6.525,6.526h59.539
			c3.587,0,6.524-2.937,6.524-6.526V155.104C85.249,151.514,82.312,148.579,78.725,148.579z M40.556,155.595h16.801
			c1.142,0,2.282,0.978,2.282,2.283c0,1.303-0.978,2.28-2.282,2.28H40.556c-1.143,0-2.284-0.978-2.284-2.28
			C38.271,156.571,39.413,155.595,40.556,155.595z M49.037,284.781c-2.61,0-4.731-2.122-4.731-4.731
			c0-2.608,2.122-4.729,4.731-4.729s4.729,2.118,4.729,4.729C53.767,282.661,51.646,284.781,49.037,284.781z M80.03,268.635H17.88
			V166.848H80.03V268.635z"/>
		<path fill="#FFFFFF" d="M32.399,220.026c9.298-9.301,24.468-9.301,33.765,0c0.49,0.487,1.142,0.65,1.631,0.65
			c0.651,0,1.142-0.163,1.632-0.65c0.978-0.98,0.978-2.45,0-3.428c-11.256-11.255-29.364-11.255-40.618,0
			c-0.979,0.978-0.979,2.447,0,3.428C29.953,221.003,31.42,221.003,32.399,220.026z"/>
		<path fill="#FFFFFF" d="M35.988,223.776c-0.979,0.979-0.979,2.447,0,3.426c0.979,0.979,2.445,0.979,3.425,0
			c5.546-5.546,14.354-5.546,19.9,0c0.489,0.487,1.141,0.652,1.63,0.652c0.652,0,1.142-0.165,1.632-0.652
			c0.978-0.979,0.978-2.446,0-3.426C55.235,216.437,43.328,216.437,35.988,223.776z"/>
		<path fill="#FFFFFF" d="M43,230.626c-0.979,0.979-0.979,2.448,0,3.427s2.446,0.979,3.426,0c1.63-1.631,4.241-1.631,5.871,0
			c0.49,0.491,1.142,0.654,1.632,0.654c0.652,0,1.142-0.163,1.631-0.654c0.979-0.979,0.979-2.447,0-3.427
			C52.135,227.202,46.427,227.202,43,230.626z"/>
	</g>
</g>
<g>
	<title>29 -Router- (Outline)</title>
	<desc>Created with Sketch.</desc>
	<g>
		<g transform="translate(-1078.000000, -591.000000)">
			<g transform="translate(1078.000000, 591.000000)">
				<path fill="#FFFFFF" d="M158.642,94.392c-3.724,0-6.741,3.057-6.741,6.826v31.852c0,3.768,3.018,6.826,6.741,6.826h121.312
					c3.724,0,6.741-3.056,6.741-6.826v-31.853c0-3.768-3.018-6.826-6.741-6.826L158.642,94.392L158.642,94.392z M158.642,98.941
					h121.312c1.241,0,2.248,1.02,2.248,2.276v31.852c0,1.256-1.005,2.274-2.248,2.274H158.642c-1.241,0-2.25-1.018-2.25-2.274
					v-31.852C156.393,99.962,157.4,98.941,158.642,98.941z"/>
				<path fill="#FFFFFF" d="M268.627,64.786h-4.303l2.059-50.021h0.186L268.627,64.786z M270.968,12.396
					c-0.051-1.218-1.042-2.18-2.246-2.18h-4.491c-1.205,0-2.195,0.962-2.243,2.18l-2.249,54.572c-0.056,1.292,0.968,2.37,2.245,2.37
					h8.986c1.276,0,2.299-1.078,2.244-2.37L270.968,12.396z"/>
				<path fill="#FFFFFF" d="M259.735,78.437h13.48c1.24,0,2.247-1.019,2.247-2.277c0-1.256-1.007-2.274-2.247-2.274h-13.48
					c-1.239,0-2.246,1.019-2.246,2.274C257.489,77.417,258.496,78.437,259.735,78.437z"/>
				<path fill="#FFFFFF" d="M259.735,87.537h13.48c1.24,0,2.247-1.018,2.247-2.275c0-1.256-1.007-2.274-2.247-2.274h-13.48
					c-1.239,0-2.246,1.018-2.246,2.274C257.489,86.519,258.496,87.537,259.735,87.537z"/>
				<path fill="#FFFFFF" d="M165.379,146.718h17.973c1.24,0,2.248-1.018,2.248-2.274v-6.826c0-1.258-1.007-2.276-2.248-2.276
					h-17.973c-1.238,0-2.246,1.019-2.246,2.276v6.826C163.134,145.702,164.141,146.718,165.379,146.718z M167.626,139.894h13.481
					v2.275h-13.481V139.894z"/>
				<path fill="#FFFFFF" d="M255.243,146.718h17.973c1.24,0,2.247-1.018,2.247-2.274v-6.826c0-1.258-1.007-2.276-2.247-2.276
					h-17.973c-1.24,0-2.246,1.019-2.246,2.276v6.826C252.997,145.702,254.003,146.718,255.243,146.718z M257.489,139.894h13.479
					v2.275h-13.479V139.894L257.489,139.894z"/>
				<path fill="#FFFFFF" d="M176.613,135.342v-15.925c0-1.256,1.006-2.275,2.247-2.275h80.876c1.242,0,2.249,1.018,2.249,2.275
					v15.925H176.613z M264.229,139.894c1.241,0,2.248-1.019,2.248-2.276v-18.199c0-3.77-3.019-6.826-6.741-6.826H178.86
					c-3.723,0-6.738,3.055-6.738,6.826v18.199c0,1.257,1.004,2.276,2.245,2.276H264.229z"/>
				<path fill="#FFFFFF" d="M259.735,98.939h13.48c1.24,0,2.247-1.018,2.247-2.275V67.061c0-1.257-1.007-2.275-2.247-2.275h-13.48
					c-1.239,0-2.246,1.018-2.246,2.275v29.604C257.489,97.922,258.496,98.939,259.735,98.939z M261.983,69.336h8.986V94.39h-8.986
					V69.336L261.983,69.336z"/>
				<path fill="#FFFFFF" d="M167.626,106.904c0-1.886-1.509-3.413-3.369-3.413s-3.371,1.527-3.371,3.413
					c0,1.887,1.508,3.413,3.371,3.413C166.117,110.317,167.626,108.791,167.626,106.904"/>
				<path fill="#FFFFFF" d="M205.818,123.967v4.549c0,1.257,1.006,2.276,2.246,2.276c1.243,0,2.249-1.018,2.249-2.276v-4.549
					c0-1.255-1.006-2.276-2.249-2.276C206.824,121.691,205.818,122.712,205.818,123.967z"/>
				<path fill="#FFFFFF" d="M183.353,123.967v4.549c0,1.257,1.006,2.276,2.247,2.276c1.242,0,2.246-1.018,2.246-2.276v-4.549
					c0-1.255-1.005-2.276-2.246-2.276S183.353,122.712,183.353,123.967z"/>
				<path fill="#FFFFFF" d="M228.285,123.967v4.549c0,1.257,1.005,2.276,2.247,2.276s2.246-1.018,2.246-2.276v-4.549
					c0-1.255-1.006-2.276-2.246-2.276C229.291,121.691,228.285,122.712,228.285,123.967z"/>
				<path fill="#FFFFFF" d="M250.75,123.967v4.549c0,1.257,1.006,2.276,2.247,2.276c1.24,0,2.246-1.018,2.246-2.276v-4.549
					c0-1.255-1.006-2.276-2.246-2.276C251.756,121.691,250.75,122.712,250.75,123.967z"/>
			</g>
		</g>
	</g>
</g>
<line fill="none" stroke="#FFFFFF" stroke-width="4" stroke-miterlimit="10" x1="130.983" y1="130.568" x2="99.089" y2="162.867"/>
<line fill="none" stroke="#FFFFFF" stroke-width="4" stroke-miterlimit="10" x1="139.046" y1="141.029" x2="107.152" y2="173.328"/>
<line fill="none" stroke="#FFFFFF" stroke-width="4" stroke-miterlimit="10" x1="146.931" y1="150" x2="115.036" y2="182.299"/>
</svg>
