<?xml version="1.0" encoding="utf-8"?>
<!-- Generator: Adobe Illustrator 16.0.0, SVG Export Plug-In . SVG Version: 6.00 Build 0)  -->
<!DOCTYPE svg PUBLIC "-//W3C//DTD SVG 1.0//EN" "http://www.w3.org/TR/2001/REC-SVG-20010904/DTD/svg10.dtd">
<svg version="1.0" id="Layer_1" xmlns="http://www.w3.org/2000/svg" xmlns:xlink="http://www.w3.org/1999/xlink" x="0px" y="0px"
	 width="300px" height="300px" viewBox="0 0 300 300" enable-background="new 0 0 300 300" xml:space="preserve">
<path d="M150,18.037C77.236,18.037,18.037,77.234,18.037,150c0,72.764,59.199,131.963,131.963,131.963
	c72.761,0,131.963-59.199,131.963-131.963C281.963,77.237,222.761,18.037,150,18.037z M150,266.279
	c-64.119,0-116.278-52.167-116.278-116.282S85.884,33.719,150,33.719c64.115,0,116.279,52.167,116.279,116.282
	C266.278,214.116,214.114,266.279,150,266.279z M212.728,188.716c-2.083,0-5.396-1.863-8.596-3.657
	c-4.799-2.698-10.254-5.76-16.485-5.76c0,0,0,0-0.008,0c-5.658,0-10.796,2.88-15.326,5.424c-3.488,1.958-7.103,3.984-9.763,3.984
	c-2.583-0.007-6.154-2.011-9.604-3.949c-4.574-2.562-9.753-5.475-15.49-5.478c-0.003,0-0.006,0-0.006,0
	c-6.107,0-11.488,3.018-16.237,5.678c-3.268,1.832-6.65,3.727-8.865,3.727c-3.328,0-7.268-2.218-11.079-4.359
	c-4.42-2.487-8.991-5.058-14.003-5.061h-0.003c-3.463,0-6.274,2.808-6.274,6.271c0,3.464,2.808,6.277,6.271,6.277
	c1.729,0,4.985,1.831,7.858,3.452c4.971,2.798,10.612,5.966,17.224,5.968c0.003,0,0.006,0,0.006,0
	c5.493,0,10.324-2.704,14.998-5.326c3.576-2.006,7.274-4.076,10.104-4.076c2.459,0,5.963,1.974,9.352,3.873
	c4.632,2.605,9.878,5.553,15.747,5.553h0.007c5.938,0,11.229-2.966,15.897-5.582c3.349-1.879,6.814-3.818,9.191-3.818
	c2.958,0,6.715,2.109,10.348,4.151c4.607,2.587,9.368,5.266,14.735,5.266c0.005,0,0.005,0,0.005,0c3.464,0,6.274-2.811,6.272-6.273
	C219.003,191.524,216.194,188.716,212.728,188.716z M181.768,129.902c0,5.713,4.633,10.346,10.345,10.346
	s10.346-4.633,10.346-10.346c0-5.711-4.634-10.345-10.346-10.345S181.768,124.19,181.768,129.902z M173.312,96.698l35.464,18.272
	c0.919,0.474,1.894,0.7,2.867,0.7c2.273,0,4.467-1.239,5.58-3.404c1.587-3.081,0.373-6.863-2.701-8.45l-35.462-18.273
	c-3.075-1.581-6.863-0.373-8.454,2.704C169.016,91.328,170.229,95.111,173.312,96.698z M99.022,129.902
	c0,5.713,4.63,10.343,10.342,10.343c5.712,0,10.342-4.63,10.342-10.343c0-5.711-4.63-10.342-10.342-10.342
	C103.652,119.56,99.022,124.19,99.022,129.902z M88.356,115.67c0.966,0,1.948-0.223,2.867-0.696l35.462-18.272
	c3.081-1.587,4.292-5.371,2.705-8.452c-1.587-3.08-5.364-4.291-8.451-2.704l-35.463,18.273c-3.08,1.587-4.292,5.37-2.704,8.451
	C83.886,114.428,86.079,115.67,88.356,115.67z"/>
</svg>
