<?xml version="1.0" encoding="utf-8"?>
<!-- Generator: Adobe Illustrator 16.0.0, SVG Export Plug-In . SVG Version: 6.00 Build 0)  -->
<!DOCTYPE svg PUBLIC "-//W3C//DTD SVG 1.1//EN" "http://www.w3.org/Graphics/SVG/1.1/DTD/svg11.dtd">
<svg version="1.1"
	 id="Layer_1" xmlns:sodipodi="http://sodipodi.sourceforge.net/DTD/sodipodi-0.dtd" xmlns:inkscape="http://www.inkscape.org/namespaces/inkscape" xmlns:dc="http://purl.org/dc/elements/1.1/" xmlns:rdf="http://www.w3.org/1999/02/22-rdf-syntax-ns#" xmlns:svg="http://www.w3.org/2000/svg" xmlns:cc="http://creativecommons.org/ns#"
	 xmlns="http://www.w3.org/2000/svg" xmlns:xlink="http://www.w3.org/1999/xlink" x="0px" y="0px" width="300px" height="300px"
	 viewBox="0 0 300 300" enable-background="new 0 0 300 300" xml:space="preserve">
<g transform="translate(0,-952.36218)">
	<path fill="#FE4F00" d="M125.046,1022.679c1.241-13.49,11.049-22.589,24-21c7.212,1.077,14.409,5.946,19.126,14.25
		c8.322,14.658,10.736,36.309,7.574,59.925h59.1c0.979,0.004,1.954,0.209,2.851,0.6c7.909,3.456,13.157,10.847,14.1,19.05
		c0.769,6.688-1.273,13.891-6,20.025c2.89,10.034,0.335,21.951-7.725,32.024c-0.313,0.385-0.665,0.738-1.05,1.051
		c1.202,9.038-1.601,19.063-8.551,27.75c-0.582,0.7-1.299,1.289-2.1,1.725c-2.084,8.159-6.586,15.85-15.75,23.325
		c-1.275,1.053-2.922,1.647-4.575,1.649c-46.319-0.193-66.248,0.785-78.899-0.524c-6.326-0.655-11.278-2.185-15.525-4.726
		c-1.998-1.195-3.748-2.562-5.625-4.05c-2.635,2.752-6.311,4.5-10.35,4.5h-43.2c-7.853,0-14.4-6.547-14.4-14.399v-86.4
		c0-7.853,6.548-14.4,14.4-14.4h43.2c3.851,0,7.369,1.594,9.975,4.125C120.93,1064.418,124.048,1049,125.046,1022.679
		L125.046,1022.679z M139.446,1023.354c-1.196,31.104-6.877,52.165-29.4,82.275v72.975c3.955,3.188,6.837,5.576,8.925,6.825
		c2.508,1.501,4.516,2.248,9.601,2.774c9.872,1.022,30.7,0.316,74.399,0.45c4.135-3.612,6.476-6.424,7.95-9.6h-2.475
		c-3.804,0.054-7.303-3.396-7.303-7.2s3.499-7.2,7.303-7.2h10.5c3.29-5.201,4.297-10.326,3.75-14.399h-14.25
		c-3.804,0.053-7.303-3.396-7.303-7.2c0-3.805,3.499-7.2,7.303-7.2h20.1c3.291-5.201,4.298-10.326,3.75-14.4h-23.85
		c-3.804,0.054-7.303-3.396-7.303-7.199c0-3.805,3.499-7.2,7.303-7.2h25.2c2.905-3.505,4.157-7.001,3.824-9.9
		c-0.355-3.093-2.035-5.396-4.725-6.9h-65.1c-4.215-0.013-7.84-4.41-7.051-8.55c4.676-24.387,1.608-47.102-4.949-58.649
		C152.441,1016.099,141.697,1010.956,139.446,1023.354z M52.446,1183.854h43.2c0-28.83-0.164-57.795,0-86.4h-43.2V1183.854z"/>
</g>
</svg>
