<svg xmlns="http://www.w3.org/2000/svg" xmlns:xlink="http://www.w3.org/1999/xlink" version="1.1" x="0px" y="0px" viewBox="0 0 100 125" enable-background="new 0 0 100 100" xml:space="preserve"><path d="M49.75,8.108c-23.196,0-42.068,18.871-42.068,42.068c0,23.196,18.872,42.068,42.068,42.068  c23.195,0,42.068-18.872,42.068-42.068C91.818,26.98,72.945,8.108,49.75,8.108z M49.75,87.244c-20.44,0-37.068-16.63-37.068-37.069  c0-20.439,16.629-37.068,37.068-37.068c20.439,0,37.068,16.63,37.068,37.069C86.818,70.615,70.189,87.244,49.75,87.244z   M69.747,62.518c-0.664,0-1.72-0.594-2.74-1.166c-1.53-0.86-3.269-1.836-5.256-1.836c0,0,0,0-0.002,0  c-1.804,0-3.442,0.918-4.886,1.729c-1.112,0.624-2.264,1.27-3.112,1.27c-0.824-0.002-1.962-0.641-3.062-1.259  c-1.458-0.817-3.109-1.745-4.938-1.746c-0.001,0-0.002,0-0.002,0c-1.947,0-3.662,0.962-5.176,1.81  c-1.042,0.584-2.12,1.188-2.826,1.188c-1.061,0-2.317-0.707-3.532-1.39c-1.409-0.793-2.866-1.612-4.464-1.613H29.75  c-1.104,0-2,0.895-2,1.999s0.895,2.001,1.999,2.001c0.551,0,1.589,0.584,2.505,1.1c1.585,0.892,3.383,1.902,5.491,1.903  c0.001,0,0.002,0,0.002,0c1.751,0,3.291-0.862,4.781-1.698c1.14-0.639,2.319-1.299,3.221-1.299c0.784,0,1.901,0.629,2.981,1.234  c1.477,0.831,3.149,1.77,5.02,1.77h0.002c1.893,0,3.58-0.945,5.068-1.779c1.068-0.599,2.172-1.217,2.93-1.217  c0.943,0,2.141,0.672,3.299,1.323c1.469,0.825,2.986,1.679,4.697,1.679c0.002,0,0.002,0,0.002,0c1.104,0,2-0.896,1.999-2  C71.747,63.413,70.852,62.518,69.747,62.518z M59.877,43.769c0,1.821,1.477,3.298,3.298,3.298s3.298-1.477,3.298-3.298  s-1.477-3.298-3.298-3.298S59.877,41.948,59.877,43.769z M57.182,33.184l11.305,5.825c0.293,0.151,0.604,0.223,0.914,0.223  c0.725,0,1.424-0.395,1.779-1.085c0.506-0.982,0.119-2.188-0.861-2.694l-11.305-5.825c-0.98-0.504-2.188-0.119-2.695,0.862  C55.812,31.472,56.199,32.678,57.182,33.184z M33.499,43.769c0,1.821,1.476,3.297,3.297,3.297s3.297-1.476,3.297-3.297  s-1.476-3.297-3.297-3.297S33.499,41.948,33.499,43.769z M30.099,39.232c0.308,0,0.621-0.071,0.914-0.222l11.305-5.825  c0.982-0.506,1.368-1.712,0.862-2.694c-0.506-0.982-1.71-1.368-2.694-0.862l-11.305,5.825c-0.982,0.506-1.368,1.712-0.862,2.694  C28.674,38.836,29.373,39.232,30.099,39.232z"/><text x="0" y="115" fill="#000000" font-size="5px" font-weight="bold" font-family="'Helvetica Neue', Helvetica, Arial-Unicode, Arial, Sans-serif">Created by Rodolfo Alvarez</text><text x="0" y="120" fill="#000000" font-size="5px" font-weight="bold" font-family="'Helvetica Neue', Helvetica, Arial-Unicode, Arial, Sans-serif">from the Noun Project</text></svg>