<svg xmlns="http://www.w3.org/2000/svg" xmlns:xlink="http://www.w3.org/1999/xlink" version="1.1" x="0px" y="0px" viewBox="0 0 100 125" enable-background="new 0 0 100 100" xml:space="preserve"><g><path d="M50,2.584c-26.192,0-47.5,21.308-47.5,47.5c0,26.19,21.308,47.5,47.5,47.5c26.19,0,47.5-21.31,47.5-47.5   C97.5,23.892,76.19,2.584,50,2.584z M50,90.458c-22.264,0-40.376-18.112-40.376-40.374C9.624,27.821,27.736,9.708,50,9.708   c22.262,0,40.374,18.112,40.374,40.375C90.374,72.346,72.262,90.458,50,90.458z"/><path d="M14,48v3.693c0,19.802,16.701,36.528,36.5,36.528S87,71.495,87,51.693V48H14z M29.646,72.782   c5.462-5.229,12.746-8.213,20.354-8.213c7.602,0,14.889,2.986,20.352,8.214C65.011,77.946,57.811,81.191,50,81.191   C42.187,81.191,34.986,77.946,29.646,72.782z M74.895,67.137C68.156,60.881,59.256,57.391,50,57.391   c-9.265,0-18.16,3.461-24.897,9.719C22.815,63.516,21.266,60,20.722,55h58.557C78.734,60,77.185,63.542,74.895,67.137z"/><path d="M31.594,31.64c4.061,0,7.364,2.36,7.364,7.36h7.124c0-8-6.499-14.485-14.488-14.485S17.105,31,17.105,39h7.125   C24.23,34,27.534,31.64,31.594,31.64z"/><path d="M68.405,31.64c4.061,0,7.363,2.36,7.363,7.36h7.126c0-8-6.5-14.485-14.489-14.485C60.418,24.515,53.92,31,53.92,39h7.126   C61.046,34,64.347,31.64,68.405,31.64z"/></g><text x="0" y="115" fill="#000000" font-size="5px" font-weight="bold" font-family="'Helvetica Neue', Helvetica, Arial-Unicode, Arial, Sans-serif">Created by Deivid Sáenz</text><text x="0" y="120" fill="#000000" font-size="5px" font-weight="bold" font-family="'Helvetica Neue', Helvetica, Arial-Unicode, Arial, Sans-serif">from the Noun Project</text></svg>