<?xml version="1.0" encoding="utf-8"?>
<!-- Generator: Adobe Illustrator 16.0.0, SVG Export Plug-In . SVG Version: 6.00 Build 0)  -->
<!DOCTYPE svg PUBLIC "-//W3C//DTD SVG 1.0//EN" "http://www.w3.org/TR/2001/REC-SVG-20010904/DTD/svg10.dtd">
<svg version="1.0" id="Layer_1" xmlns="http://www.w3.org/2000/svg" xmlns:xlink="http://www.w3.org/1999/xlink" x="0px" y="0px"
	 width="60px" height="60px" viewBox="0 0 60 60" enable-background="new 0 0 60 60" xml:space="preserve">
<g>
	<title>noun_340051_cc</title>
	<desc>Created using Figma</desc>
	<g id="Canvas" transform="translate(-1653 -191)">
		<g id="noun_340051_cc">
			<g id="Group">
				<g id="Vector">
					<g transform="translate(1653 191)">
						<path id="path0_fill" fill="#FFFFFF" d="M1683,227.566c-1.27,0-2.299-0.926-2.299-2.063c0-1.14,1.03-2.065,2.299-2.065
							c1.268,0,2.301,0.928,2.301,2.065S1684.268,227.566,1683,227.566z M1683,221.841c-2.25,0-4.079,1.642-4.079,3.662
							s1.829,3.661,4.079,3.661s4.08-1.643,4.08-3.661C1687.079,223.482,1685.25,221.841,1683,221.841z M1683,214.141
							c-2.25,0-4.079,1.643-4.079,3.66s1.829,3.662,4.079,3.662s4.08-1.645,4.08-3.662
							C1687.079,215.783,1685.25,214.141,1683,214.141z M1683,212.165c-1.27,0-2.299-0.927-2.299-2.063
							c0-1.139,1.03-2.063,2.299-2.063c1.268,0,2.301,0.926,2.301,2.063C1685.301,211.238,1684.268,212.165,1683,212.165z
							 M1683,206.439c-2.25,0-4.079,1.643-4.079,3.662c0,2.019,1.829,3.66,4.079,3.66s4.08-1.643,4.08-3.66
							C1687.079,208.082,1685.25,206.439,1683,206.439z M1689.785,229.089c0,0.78-0.709,1.418-1.579,1.418h-10.412
							c-0.87,0-1.58-0.638-1.58-1.418v-22.575c0-0.781,0.71-1.418,1.58-1.418h10.412c0.87,0,1.579,0.637,1.579,1.418V229.089z
							 M1685.836,233.48h-5.673v-1.377h5.673V233.48z M1688.206,203.5h-10.412c-1.853,0-3.358,1.352-3.358,3.014v22.575
							c0,1.662,1.506,3.015,3.358,3.015h0.589v2.178c0,0.439,0.398,0.799,0.891,0.799h7.451c0.491,0,0.891-0.357,0.891-0.799v-2.178
							h0.591c1.853,0,3.358-1.353,3.358-3.015v-22.575C1691.564,204.852,1690.059,203.5,1688.206,203.5z"/>
					</g>
				</g>
			</g>
		</g>
	</g>
</g>
<g>
	<path d="M30.896,18.854c-0.198-0.319-0.517-0.492-0.886-0.492c-0.368,0-0.688,0.172-0.885,0.492l-8.088,12.833
		c-0.074,0.148-0.124,0.321-0.124,0.492c0,0.566,0.468,1.034,1.033,1.034h16.127c0.566,0,1.033-0.468,1.033-1.034
		c0-0.196-0.024-0.369-0.123-0.516L30.896,18.854z M30.749,31.638c-0.198,0.172-0.443,0.271-0.713,0.271s-0.517-0.1-0.713-0.271
		c-0.221-0.172-0.319-0.418-0.319-0.736c0-0.271,0.098-0.516,0.295-0.713c0.197-0.196,0.418-0.294,0.713-0.294
		c0.27,0,0.516,0.098,0.738,0.294c0.195,0.197,0.294,0.442,0.294,0.713C31.043,31.22,30.945,31.466,30.749,31.638z M30.994,24.14
		l-0.319,3.343c-0.024,0.395-0.098,0.689-0.196,0.91c-0.098,0.22-0.271,0.319-0.516,0.319c-0.246,0-0.418-0.122-0.516-0.319
		s-0.147-0.516-0.197-0.935l-0.222-3.244c-0.024-0.615-0.049-1.082-0.049-1.353c0-0.394,0.098-0.664,0.295-0.884
		c0.196-0.222,0.467-0.32,0.786-0.32c0.394,0,0.639,0.123,0.787,0.417c0.123,0.271,0.197,0.64,0.197,1.156
		C31.045,23.525,31.02,23.82,30.994,24.14z"/>
	<path d="M47.671,23.977c0-9.503-7.912-17.206-17.671-17.206c-9.76,0-17.671,7.703-17.671,17.206c0,2.221,0.447,4.337,1.234,6.286
		c1.539,5.904,5.481,15.45,15.506,22.435l1.063,0.53l1.063-0.53C46.74,41.869,47.67,24.863,47.67,24.863h-0.046
		C47.641,24.566,47.671,24.275,47.671,23.977z M38.05,34.687H21.947c-1.377,0-2.508-1.131-2.508-2.506
		c0-0.444,0.123-0.886,0.344-1.254v-0.025l8.064-12.858c0.467-0.738,1.254-1.18,2.139-1.18s1.671,0.442,2.139,1.18l8.112,12.858
		c0.221,0.394,0.345,0.835,0.319,1.279C40.558,33.556,39.427,34.687,38.05,34.687z"/>
</g>
</svg>
