<?xml version="1.0" encoding="utf-8"?>
<!-- Generator: Adobe Illustrator 16.0.0, SVG Export Plug-In . SVG Version: 6.00 Build 0)  -->
<!DOCTYPE svg PUBLIC "-//W3C//DTD SVG 1.0//EN" "http://www.w3.org/TR/2001/REC-SVG-20010904/DTD/svg10.dtd">
<svg version="1.0" id="Layer_1" xmlns="http://www.w3.org/2000/svg" xmlns:xlink="http://www.w3.org/1999/xlink" x="0px" y="0px"
	 width="60px" height="60px" viewBox="0 0 60 60" enable-background="new 0 0 60 60" xml:space="preserve">
<g>
	<title>noun_340051_cc</title>
	<desc>Created using Figma</desc>
	<g id="Canvas" transform="translate(-1653 -191)">
		<g id="noun_340051_cc">
			<g id="Group">
				<g id="Vector">
					<g transform="translate(1653 191)">
						<path id="path0_fill" fill="#FFFFFF" d="M1683,227.566c-1.27,0-2.299-0.926-2.299-2.063c0-1.14,1.03-2.065,2.299-2.065
							c1.268,0,2.301,0.928,2.301,2.065S1684.268,227.566,1683,227.566z M1683,221.841c-2.25,0-4.079,1.642-4.079,3.662
							s1.829,3.661,4.079,3.661s4.08-1.643,4.08-3.661C1687.079,223.482,1685.25,221.841,1683,221.841z M1683,214.141
							c-2.25,0-4.079,1.643-4.079,3.66s1.829,3.662,4.079,3.662s4.08-1.645,4.08-3.662
							C1687.079,215.783,1685.25,214.141,1683,214.141z M1683,212.165c-1.27,0-2.299-0.927-2.299-2.063
							c0-1.139,1.03-2.063,2.299-2.063c1.268,0,2.301,0.926,2.301,2.063C1685.301,211.238,1684.268,212.165,1683,212.165z
							 M1683,206.439c-2.25,0-4.079,1.643-4.079,3.662c0,2.019,1.829,3.66,4.079,3.66s4.08-1.643,4.08-3.66
							C1687.079,208.082,1685.25,206.439,1683,206.439z M1689.785,229.089c0,0.78-0.709,1.418-1.579,1.418h-10.412
							c-0.87,0-1.58-0.638-1.58-1.418v-22.575c0-0.781,0.71-1.418,1.58-1.418h10.412c0.87,0,1.579,0.637,1.579,1.418V229.089z
							 M1685.836,233.48h-5.673v-1.377h5.673V233.48z M1688.206,203.5h-10.412c-1.853,0-3.358,1.352-3.358,3.014v22.575
							c0,1.662,1.506,3.015,3.358,3.015h0.589v2.178c0,0.439,0.398,0.799,0.891,0.799h7.451c0.491,0,0.891-0.357,0.891-0.799v-2.178
							h0.591c1.853,0,3.358-1.353,3.358-3.015v-22.575C1691.564,204.852,1690.059,203.5,1688.206,203.5z"/>
					</g>
				</g>
			</g>
		</g>
	</g>
</g>
<g>
	<title>noun_340051_cc</title>
	<desc>Created using Figma</desc>
</g>
<g>
	<rect x="27.448" y="40.166" width="5.102" height="1.239"/>
	<ellipse cx="30" cy="34.229" rx="2.068" ry="1.857"/>
	<ellipse cx="30" cy="20.376" rx="2.068" ry="1.856"/>
	<path d="M34.683,15.876h-9.365c-0.783,0-1.421,0.572-1.421,1.274v20.304c0,0.702,0.639,1.275,1.421,1.275h9.365
		c0.782,0,1.419-0.573,1.419-1.275V17.15C36.102,16.448,35.465,15.876,34.683,15.876z M30,37.521c-2.023,0-3.668-1.476-3.668-3.293
		c0-1.816,1.646-3.293,3.668-3.293c2.024,0,3.669,1.477,3.669,3.293C33.669,36.046,32.023,37.521,30,37.521z M30,30.596
		c-2.023,0-3.668-1.479-3.668-3.294c0-1.815,1.646-3.292,3.668-3.292c2.024,0,3.669,1.477,3.669,3.292
		C33.669,29.117,32.023,30.596,30,30.596z M30,23.668c-2.023,0-3.668-1.476-3.668-3.292c0-1.817,1.646-3.293,3.668-3.293
		c2.024,0,3.669,1.476,3.669,3.293C33.669,22.192,32.023,23.668,30,23.668z"/>
	<path d="M47.671,23.977c0-9.503-7.912-17.206-17.671-17.206c-9.76,0-17.671,7.703-17.671,17.206c0,2.221,0.447,4.337,1.234,6.286
		c1.539,5.904,5.481,15.45,15.506,22.435l1.063,0.53l1.063-0.53C46.74,41.869,47.67,24.863,47.67,24.863h-0.046
		C47.641,24.566,47.671,24.275,47.671,23.977z M37.702,37.454c0,1.495-1.354,2.712-3.02,2.712H34.15v1.957
		c0,0.397-0.358,0.719-0.8,0.719h-6.703c-0.442,0-0.8-0.321-0.8-0.719v-1.957h-0.53c-1.666,0-3.02-1.217-3.02-2.712V17.15
		c0-1.495,1.354-2.71,3.02-2.71h9.365c1.665,0,3.02,1.215,3.02,2.71V37.454z"/>
</g>
</svg>
