<svg width="180" height="180" viewBox="0 0 180 180" version="1.1" xmlns="http://www.w3.org/2000/svg" xmlns:xlink="http://www.w3.org/1999/xlink">
<title>Group</title>
<desc>Created using Figma</desc>
<g id="Canvas" transform="translate(-774 -936)">
<g id="Group">
<g id="Vector">
<use xlink:href="#path0_fill" transform="translate(788.583 950.618)"/>
</g>
<g id="Vector">
<use xlink:href="#path1_fill" transform="translate(774 936)"/>
</g>
<g id="Vector">
<use xlink:href="#path2_fill" transform="translate(788.583 1079.56)"/>
</g>
<g id="Vector">
<use xlink:href="#path3_fill" transform="translate(774 1064.95)"/>
</g>
<g id="Vector">
<use xlink:href="#path4_fill" transform="translate(917.652 950.618)"/>
</g>
<g id="Vector">
<use xlink:href="#path5_fill" transform="translate(903.069 936)"/>
</g>
<g id="Vector">
<use xlink:href="#path6_fill" transform="translate(774 1022.84)"/>
</g>
<g id="Vector">
<use xlink:href="#path7_fill" transform="translate(774 1000.36)"/>
</g>
<g id="Vector">
<use xlink:href="#path8_fill" transform="translate(781.618 993.382)"/>
</g>
<g id="Vector">
<use xlink:href="#path9_fill" transform="translate(817.313 963.491)"/>
</g>
<g id="Vector">
<use xlink:href="#path10_fill" transform="translate(817.313 1036.8)"/>
</g>
<g id="Vector">
<use xlink:href="#path11_fill" transform="translate(774 1036.8)"/>
</g>
<g id="Vector">
<use xlink:href="#path12_fill" transform="translate(831.243 1087.85)"/>
</g>
<g id="Vector">
<use xlink:href="#path13_fill" transform="translate(859.756 1079.56)"/>
</g>
<g id="Vector">
<use xlink:href="#path14_fill" transform="translate(859.756 1079.56)"/>
</g>
<g id="Vector">
<use xlink:href="#path15_fill" transform="translate(874.121 1101.82)"/>
</g>
<g id="Vector">
<use xlink:href="#path16_fill" transform="translate(888.704 1108.36)"/>
</g>
<g id="Vector">
<use xlink:href="#path17_fill" transform="translate(910.687 1093.09)"/>
</g>
<g id="Vector">
<use xlink:href="#path18_fill" transform="translate(903.069 1064.95)"/>
</g>
<g id="Vector">
<use xlink:href="#path19_fill" transform="translate(850.614 1015.42)"/>
</g>
<g id="Vector">
<use xlink:href="#path20_fill" transform="translate(831.243 936)"/>
</g>
<g id="Vector">
<use xlink:href="#path21_fill" transform="translate(859.756 936)"/>
</g>
<g id="Vector">
<use xlink:href="#path22_fill" transform="translate(888.704 936)"/>
</g>
<g id="Vector">
<use xlink:href="#path23_fill" transform="translate(852.791 943.636)"/>
</g>
<g id="Vector">
<use xlink:href="#path24_fill" transform="translate(881.521 956.946)"/>
</g>
<g id="Vector">
<use xlink:href="#path25_fill" transform="translate(838.643 1014.98)"/>
</g>
<g id="Vector">
<use xlink:href="#path26_fill" transform="translate(903.287 1015.42)"/>
</g>
<g id="Vector">
<use xlink:href="#path27_fill" transform="translate(875.209 1043.78)"/>
</g>
<g id="Vector">
<use xlink:href="#path28_fill" transform="translate(946.382 1079.56)"/>
</g>
<g id="Vector">
<use xlink:href="#path29_fill" transform="translate(932.452 993.382)"/>
</g>
<g id="Vector">
<use xlink:href="#path30_fill" transform="translate(946.382 1008)"/>
</g>
<g id="Vector">
<use xlink:href="#path31_fill" transform="translate(935.935 1008)"/>
</g>
<g id="Vector">
<use xlink:href="#path32_fill" transform="translate(895.886 993.382)"/>
</g>
<g id="Vector">
<use xlink:href="#path33_fill" transform="translate(831.243 1064.95)"/>
</g>
<g id="Vector">
<use xlink:href="#path34_fill" transform="translate(861.062 1064.95)"/>
</g>
<g id="Vector">
<use xlink:href="#path35_fill" transform="translate(868.027 1051.42)"/>
</g>
<g id="Vector">
<use xlink:href="#path36_fill" transform="translate(895.886 1094.84)"/>
</g>
<g id="Vector">
<use xlink:href="#path37_fill" transform="translate(932.452 1101.82)"/>
</g>
</g>
</g>
<defs>
<path id="path0_fill" d="M 21.7654 0L 0 0L 0 21.8182L 21.7654 21.8182L 21.7654 0Z"/>
<path id="path1_fill" d="M 50.7134 -8.32297e-07L 4.15142e-07 -8.32297e-07L 4.15142e-07 51.0545L 50.9311 51.0545L 50.9311 -8.32297e-07L 50.7134 -8.32297e-07ZM 43.3132 43.4181L 7.6179 43.4181L 7.6179 7.63635L 43.3132 7.63635L 43.3132 43.4181Z"/>
<path id="path2_fill" d="M 21.7654 -6.65837e-06L 0 -6.65837e-06L 0 21.8181L 21.7654 21.8181L 21.7654 -6.65837e-06Z"/>
<path id="path3_fill" d="M 4.15142e-07 51.0545L 50.9311 51.0545L 50.9311 0L 4.15142e-07 0L 4.15142e-07 51.0545ZM 7.6179 7.63635L 43.3132 7.63635L 43.3132 43.4181L 7.6179 43.4181L 7.6179 7.63635Z"/>
<path id="path4_fill" d="M 21.7654 0L 6.64228e-06 0L 6.64228e-06 21.8182L 21.7654 21.8182L 21.7654 0Z"/>
<path id="path5_fill" d="M -3.32114e-06 -8.32297e-07L -3.32114e-06 51.0545L 50.9311 51.0545L 50.9311 -8.32297e-07L -3.32114e-06 -8.32297e-07ZM 43.3132 43.4181L 7.61789 43.4181L 7.61789 7.63635L 43.3132 7.63635L 43.3132 43.4181Z"/>
<path id="path6_fill" d="M 21.9831 0L 0 0L 0 6.54545L 21.9831 6.54545L 21.9831 0Z"/>
<path id="path7_fill" d="M 7.6179 3.32919e-06L 0 3.32919e-06L 0 7.63636L 7.6179 7.63636L 7.6179 3.32919e-06Z"/>
<path id="path8_fill" d="M 6.96493 21.6L 14.1475 21.6L 20.6771 21.6L 20.6771 29.4545L 26.9891 29.4545L 26.9891 21.6L 31.9952 21.6L 31.9952 14.6182L 26.9891 14.6182L 26.9891 3.05454L 20.6771 3.05454L 20.6771 14.6182L 14.1475 14.6182L 14.1475 1.66459e-06L 6.96493 1.66459e-06L 6.96493 14.6182L 4.15142e-07 14.6182L 4.15142e-07 21.6L 6.96493 21.6Z"/>
<path id="path9_fill" d="M 21.3301 59.3454L 21.3301 53.6727L 28.0774 53.6727L 28.0774 44.509L 13.9299 44.509L 13.9299 36.8727L 20.8948 36.8727L 20.8948 29.8909L 42.4426 29.8909L 49.4075 29.8909L 49.4075 36.4363L 42.2249 36.4363L 42.2249 50.6181L 49.6252 50.6181L 49.6252 36.8727L 67.4728 36.8727L 67.4728 44.7272L 75.3083 44.7272L 75.3083 29.8909L 74.873 29.8909L 68.3434 29.8909L 68.3434 23.3454L 49.4075 23.3454L 49.4075 7.85454L 56.8077 7.85454L 56.8077 0.654543L 49.4075 0.654543L 43.7485 0.654543L 42.4426 0.654543L 42.4426 23.3454L 20.8948 23.3454L 20.8948 6.32726L 28.0774 6.32726L 28.0774 0L 20.8948 0L 13.9299 0L 13.9299 6.32726L 13.9299 23.3454L 13.9299 29.8909L 6.96493 29.8909L 6.74728 29.8909L 1.66057e-06 29.8909L 1.66057e-06 36.8727L 6.74728 36.8727L 6.74728 44.509L 1.66057e-06 44.509L 1.66057e-06 53.6727L 13.9299 53.6727L 13.9299 59.3454L 1.66057e-06 59.3454L 1.66057e-06 65.8908L 13.9299 65.8908L 13.9299 73.309L 21.3301 73.309L 21.3301 65.8908L 21.3301 59.3454Z"/>
<path id="path10_fill" d="M 6.74728 -3.32919e-06L 0 -3.32919e-06L 0 6.76363L 6.74728 6.76363L 6.74728 -3.32919e-06Z"/>
<path id="path11_fill" d="M 7.6179 14.6182L 21.7654 14.6182L 21.7654 21.6L 28.295 21.6L 28.295 14.6182L 36.1306 14.6182L 36.1306 21.6L 85.7558 21.6L 85.7558 14.6182L 43.3132 14.6182L 43.3132 6.98181L 34.607 6.98181L 34.607 -3.32919e-06L 14.5828 -3.32919e-06L 14.5828 6.98181L 7.6179 6.98181L 7.6179 -3.32919e-06L 4.15142e-07 -3.32919e-06L 4.15142e-07 21.6L 7.6179 21.6L 7.6179 14.6182Z"/>
<path id="path12_fill" d="M 28.5127 13.5272L 21.5478 13.5272L 21.5478 20.5091L 14.1475 20.5091L 14.1475 13.5272L 21.5478 13.5272L 21.5478 6.9818L 14.1475 6.9818L 14.1475 0L 7.40024 0L 7.40024 6.9818L -3.32114e-06 6.9818L -3.32114e-06 13.5272L 7.40024 13.5272L 7.40024 20.5091L 7.40024 28.1454L 14.1475 28.1454L 35.4776 28.1454L 35.4776 20.5091L 28.5127 20.5091L 28.5127 13.5272Z"/>
<path id="path13_fill" d="M 6.96494 -6.65837e-06L 0 -6.65837e-06L 0 6.98181L 6.96494 6.98181L 6.96494 -6.65837e-06Z"/>
<path id="path14_fill" d="M 14.3652 6.98181L 6.96494 6.98181L 6.96494 13.5273L 1.66057e-06 13.5273L 1.66057e-06 20.5091L 6.96494 20.5091L 6.96494 15.2727L 14.3652 15.2727L 21.7654 15.2727L 21.7654 6.98181L 21.7654 -6.65837e-06L 14.3652 -6.65837e-06L 14.3652 6.98181Z"/>
<path id="path15_fill" d="M 7.40024 3.32919e-06L 0 3.32919e-06L 0 14.1818L 7.40024 14.1818L 7.40024 3.32919e-06Z"/>
<path id="path16_fill" d="M 14.3652 3.32919e-06L 0 3.32919e-06L 0 7.63636L 14.3652 7.63636L 14.3652 3.32919e-06Z"/>
<path id="path17_fill" d="M 27.2068 3.32919e-06L 6.96494 3.32919e-06L 6.96494 5.01817L 6.96494 6.98181L 6.96494 15.9272L -3.32114e-06 15.9272L -3.32114e-06 22.9091L 6.96494 22.9091L 13.4946 22.9091L 13.4946 6.98181L 27.2068 6.98181L 27.2068 3.32919e-06Z"/>
<path id="path18_fill" d="M 7.61789 0L -3.32114e-06 0L -3.32114e-06 7.63635L 7.61789 7.63635L 7.61789 0Z"/>
<path id="path19_fill" d="M 7.6179 0L 0 0L 0 7.63635L 7.6179 7.63635L 7.6179 0Z"/>
<path id="path20_fill" d="M 7.40024 7.63635L 21.5478 7.63635L 21.5478 -8.32297e-07L -3.32114e-06 -8.32297e-07L -3.32114e-06 3.70909L -3.32114e-06 7.63635L -3.32114e-06 20.9454L 7.40024 20.9454L 7.40024 7.63635Z"/>
<path id="path21_fill" d="M 21.9831 0L 0 0L 0 6.10908L 21.9831 6.10908L 21.9831 0Z"/>
<path id="path22_fill" d="M 7.1826 0L 0 0L 0 17.8909L 7.1826 17.8909L 7.1826 0Z"/>
<path id="path23_fill" d="M 6.96494 8.07272L 6.96494 13.3091L 28.7304 13.3091L 28.7304 6.98181L 8.27086 6.98181L 8.27086 -8.32297e-07L 0 -8.32297e-07L 0 8.07272L 6.96494 8.07272Z"/>
<path id="path24_fill" d="M 14.1475 0L 0 0L 0 14.1818L 14.1475 14.1818L 14.1475 0Z"/>
<path id="path25_fill" d="M 50.0605 14.8363L 50.0605 7.85454L 64.4256 7.85454L 64.4256 -3.32919e-06L 28.0774 -3.32919e-06L 28.0774 7.85454L 25.0302 7.85454L 25.0302 14.4L 14.1475 14.4L 14.1475 21.8181L 0 21.8181L 0 27.2727L 21.1125 27.2727L 21.1125 34.2545L 28.295 34.2545L 28.295 21.8181L 35.4776 21.8181L 35.4776 14.4L 42.8779 14.4L 42.8779 21.8181L 50.0605 21.8181L 50.0605 28.8L 57.2431 28.8L 57.2431 14.8363L 50.0605 14.8363Z"/>
<path id="path26_fill" d="M 22.2007 7.41817L 22.2007 -1.66459e-06L 7.40024 -1.66459e-06L 7.40024 7.41817L 20.8948 7.41817L 20.8948 13.9636L -6.64228e-06 13.9636L -6.64228e-06 21.3818L 29.1657 21.3818L 29.1657 25.3091L 36.1306 25.3091L 36.1306 7.41817L 29.1657 7.41817L 22.2007 7.41817Z"/>
<path id="path27_fill" d="M 71.1729 7.63635L 35.4776 7.63635L 35.4776 -1.66459e-06L 20.6772 -1.66459e-06L 20.6772 7.63635L 13.4946 7.63635L 13.4946 14.6182L -1.66057e-06 14.6182L -1.66057e-06 21.1636L 13.4946 21.1636L 13.4946 35.7818L 13.2769 35.7818L 13.2769 42.7636L 13.4946 42.7636L 20.6772 42.7636L 27.8597 42.7636L 27.8597 50.6181L 35.4776 50.6181L 35.4776 42.9818L 42.6602 42.9818L 48.9722 42.9818L 64.4257 42.9818L 64.4257 36L 68.7787 36L 68.7787 28.8L 62.9021 28.8L 62.9021 21.1636L 55.2842 21.1636L 55.2842 28.8L 61.8138 28.8L 61.8138 35.7818L 49.1899 35.7818L 49.1899 14.6182L 71.1729 14.6182L 71.1729 26.1818L 78.3555 26.1818L 78.3555 14.6182L 78.3555 7.63635L 78.3555 -1.66459e-06L 71.1729 -1.66459e-06L 71.1729 7.63635ZM 42.6602 35.7818L 20.6772 35.7818L 20.6772 14.6182L 42.6602 14.6182L 42.6602 35.7818Z"/>
<path id="path28_fill" d="M 7.1826 -6.65837e-06L 0 -6.65837e-06L 0 7.19999L 7.1826 7.19999L 7.1826 -6.65837e-06Z"/>
<path id="path29_fill" d="M 21.1125 0L -3.32114e-06 0L -3.32114e-06 6.98181L 21.1125 6.98181L 21.1125 0Z"/>
<path id="path30_fill" d="M 7.1826 3.32919e-06L 0 3.32919e-06L 0 17.8909L 7.1826 17.8909L 7.1826 3.32919e-06Z"/>
<path id="path31_fill" d="M 7.83556 3.32919e-06L -6.64228e-06 3.32919e-06L -6.64228e-06 7.85454L 7.83556 7.85454L 7.83556 3.32919e-06Z"/>
<path id="path32_fill" d="M 29.601 0L 6.64228e-06 0L 6.64228e-06 6.98181L 29.601 6.98181L 29.601 0Z"/>
<path id="path33_fill" d="M 21.5478 14.6182L 21.5478 7.63635L 27.2068 7.63635L 27.2068 0L -3.32114e-06 0L -3.32114e-06 7.63635L 14.1475 7.63635L 14.1475 14.6182L 21.5478 14.6182Z"/>
<path id="path34_fill" d="M 7.18259 0L 0 0L 0 7.2L 7.18259 7.2L 7.18259 0Z"/>
<path id="path35_fill" d="M 6.96494 0L 0 0L 0 6.98181L 6.96494 6.98181L 6.96494 0Z"/>
<path id="path36_fill" d="M 7.40024 -6.65837e-06L 6.64228e-06 -6.65837e-06L 6.64228e-06 7.41817L 7.40024 7.41817L 7.40024 -6.65837e-06Z"/>
<path id="path37_fill" d="M 6.96494 3.32919e-06L 6.96494 7.19998L -3.32114e-06 7.19998L -3.32114e-06 14.1818L 6.96494 14.1818L 6.96494 7.19998L 13.9299 7.19998L 13.9299 14.1818L 21.1125 14.1818L 21.1125 7.19998L 21.1125 3.32919e-06L 13.9299 3.32919e-06L 6.96494 3.32919e-06Z"/>
</defs>
</svg>
