<?xml version="1.0" encoding="utf-8"?>
<!-- Generator: Adobe Illustrator 16.0.0, SVG Export Plug-In . SVG Version: 6.00 Build 0)  -->
<!DOCTYPE svg PUBLIC "-//W3C//DTD SVG 1.1//EN" "http://www.w3.org/Graphics/SVG/1.1/DTD/svg11.dtd">
<svg version="1.1" id="Layer_1" xmlns="http://www.w3.org/2000/svg" xmlns:xlink="http://www.w3.org/1999/xlink" x="0px" y="0px"
	 width="300px" height="300px" viewBox="0 0 300 300" enable-background="new 0 0 300 300" xml:space="preserve">
<g>
	<path fill="#FFFFFF" d="M78.129,240.581c-4.51,0-8.179,3.674-8.179,8.18c0,4.512,3.669,8.183,8.179,8.183
		c4.513,0,8.185-3.67,8.185-8.183C86.314,244.246,82.642,240.581,78.129,240.581z"/>
	<path fill="#FFFFFF" d="M118.867,50.095H37.397c-9.293,0-16.831,8.42-16.831,18.806V243.1c0,10.386,7.538,18.807,16.831,18.807
		h81.469c9.291,0,16.826-8.417,16.826-18.807V68.901C135.693,58.515,128.161,50.095,118.867,50.095z M67.436,65.276h21.39
		c0.705,0,1.28,0.574,1.28,1.281c0,0.707-0.575,1.278-1.28,1.278h-21.39c-0.707,0-1.28-0.571-1.28-1.278
		C66.156,65.85,66.726,65.276,67.436,65.276z M78.13,258.199c-5.202,0-9.436-4.234-9.436-9.438c0-5.203,4.233-9.439,9.436-9.439
		s9.438,4.236,9.438,9.439C87.569,253.965,83.333,258.199,78.13,258.199z M129.558,232.902H26.705V79.106h102.847v153.796H129.558z"
		/>
	<polygon fill="#FFFFFF" points="40.263,181.189 46.75,181.189 46.75,130.808 40.263,130.808 	"/>
	<polygon fill="#FFFFFF" points="51.756,181.189 53.817,181.189 53.817,130.808 51.756,130.808 	"/>
	<polygon fill="#FFFFFF" points="56.474,181.189 62.956,181.189 62.956,130.808 56.474,130.808 	"/>
	<polygon fill="#FFFFFF" points="67.963,181.189 69.731,181.189 69.731,130.808 67.963,130.808 	"/>
	<polygon fill="#FFFFFF" points="72.382,181.189 74.45,181.189 74.45,130.808 72.382,130.808 	"/>
	<polygon fill="#FFFFFF" points="77.097,181.189 83.578,181.189 83.578,130.808 77.097,130.808 	"/>
	<polygon fill="#FFFFFF" points="88.588,181.189 93.011,181.189 93.011,130.808 88.588,130.808 	"/>
	<polygon fill="#FFFFFF" points="95.367,181.189 99.787,181.189 99.787,130.808 95.367,130.808 	"/>
	<polygon fill="#FFFFFF" points="104.797,181.189 108.925,181.189 108.925,130.808 104.797,130.808 	"/>
	<polygon fill="#FFFFFF" points="111.577,181.189 115.996,181.189 115.996,130.808 111.577,130.808 	"/>
</g>
<g>
	<g>
		<path fill="#FFFFFF" d="M193.682,141.775c-12.84,0-24.374,2.394-32.86,6.528c-8.271,3.917-13.93,9.576-14.146,16.323
			c0,0,0,0,0,0.218l0,0c0,0.217,0,0.217,0,0.435v18.716c0,0.219,0,0.219,0,0.219v20.021v0.217v18.499
			c0,6.964,5.657,12.84,14.146,16.974c8.486,4.136,20.021,6.529,32.86,6.529c4.788,0,9.358-0.434,13.712-1.087
			c8.051,10.011,20.456,16.54,34.166,16.54c24.156,0,43.745-19.587,43.745-43.961c0-24.158-19.589-43.961-43.745-43.961h-1.087
			v-8.706c0-0.218,0-0.435,0-0.435s0,0,0-0.218c0,0,0,0,0-0.218c-0.437-6.529-5.876-12.188-14.146-16.322
			C217.84,144.168,206.522,141.775,193.682,141.775L193.682,141.775z M193.682,145.257c12.188,0,23.287,2.395,31.121,6.093
			c7.617,3.7,12.188,8.488,12.404,13.494v0.217c0,0,0,0,0,0.218c0,3.482-2.175,7.183-6.311,10.229l0,0
			c-5.224,1.305-10.229,3.699-14.363,6.746c-6.746,1.959-14.363,3.047-22.633,3.047c-12.406,0-23.505-2.395-31.339-6.094
			c-7.399-3.482-11.753-8.053-12.187-12.841v-0.87c0-0.217,0-0.217,0-0.436c0.217-4.787,4.569-9.576,12.403-13.274
			C170.396,147.651,181.494,145.257,193.682,145.257L193.682,145.257z M237.207,174.201L237.207,174.201L237.207,174.201
			L237.207,174.201L237.207,174.201z M150.156,174.201c2.395,3.047,6.312,5.876,10.665,8.053c8.486,4.135,20.021,6.528,32.86,6.528
			c5.876,0,11.535-0.435,16.758-1.523c-4.569,4.788-8.27,10.446-10.229,16.758c-2.177,0.218-4.354,0.218-6.529,0.218
			c-12.404,0-23.286-2.395-31.338-6.094c-7.835-3.7-12.188-8.705-12.188-13.711v-0.217V174.201L150.156,174.201z M241.778,177.466
			c22.414,0,40.261,18.063,40.261,40.479c0,22.415-18.063,40.478-40.261,40.478c-22.198,0-40.262-18.062-40.262-40.478
			C201.517,195.746,219.362,177.466,241.778,177.466L241.778,177.466z M150.156,193.353c2.395,3.046,6.312,5.876,10.665,8.053
			c8.486,4.135,20.021,6.528,32.86,6.528c1.959,0,3.699,0,5.441-0.217c-0.87,3.264-1.306,6.963-1.306,10.445
			c0,2.176,0.217,4.352,0.436,6.529c-1.524,0.217-3.048,0.217-4.789,0.217c-12.404,0-23.286-2.395-31.339-6.094
			c-7.834-3.699-12.187-8.705-12.187-13.928v-0.218v-11.316H150.156z M150.156,213.592c2.395,3.047,6.312,5.877,10.665,8.053
			c8.486,4.135,20.021,6.529,32.86,6.529c1.742,0,3.482,0,5.441-0.219c1.305,5.223,3.264,10.012,6.311,14.364
			c-3.699,0.435-7.399,0.87-11.533,0.87c-12.406,0-23.505-2.394-31.339-6.093c-7.835-3.7-12.187-8.706-12.187-13.712
			L150.156,213.592L150.156,213.592z"/>
	</g>
	<path fill="#FFFFFF" d="M257.882,217.945c0,0.869-0.652,1.523-1.522,1.523h-13.276v13.274c0,0.87-0.653,1.523-1.523,1.523
		s-1.523-0.653-1.523-1.523v-13.274h-13.273c-0.872,0-1.523-0.654-1.523-1.523c0-0.871,0.651-1.523,1.523-1.523h13.273v-13.276
		c0-0.87,0.653-1.523,1.523-1.523s1.523,0.653,1.523,1.523v13.276h13.276C257.229,216.422,257.882,217.074,257.882,217.945z"/>
</g>
</svg>
