<?xml version="1.0" encoding="utf-8"?>
<!-- Generator: Adobe Illustrator 16.0.0, SVG Export Plug-In . SVG Version: 6.00 Build 0)  -->
<!DOCTYPE svg PUBLIC "-//W3C//DTD SVG 1.0//EN" "http://www.w3.org/TR/2001/REC-SVG-20010904/DTD/svg10.dtd">
<svg version="1.0" id="Layer_1" xmlns="http://www.w3.org/2000/svg" xmlns:xlink="http://www.w3.org/1999/xlink" x="0px" y="0px"
	 width="60px" height="60px" viewBox="0 0 60 60" enable-background="new 0 0 60 60" xml:space="preserve">
<g>
	<path fill="#010101" d="M50.82,40.747l-15.484-24.54c-0.891-1.407-2.394-2.252-4.082-2.252c-1.689,0-3.19,0.844-4.083,2.252
		l-15.39,24.54v0.047c-0.422,0.703-0.657,1.548-0.657,2.393c0,2.628,2.158,4.786,4.786,4.786h30.733
		c2.627,0,4.785-2.158,4.785-4.786C51.477,42.342,51.242,41.497,50.82,40.747z M46.691,45.158h-30.78
		c-1.079,0-1.971-0.893-1.971-1.973c0-0.328,0.094-0.656,0.235-0.938l15.437-24.493c0.375-0.61,0.985-0.938,1.688-0.938
		c0.704,0,1.313,0.329,1.69,0.938l15.437,24.446c0.188,0.281,0.234,0.609,0.234,0.984C48.661,44.266,47.77,45.158,46.691,45.158z"/>
	<path fill="#010101" d="M31.301,38.824c-0.563,0-0.985,0.187-1.361,0.562c-0.375,0.375-0.563,0.844-0.563,1.36
		c0,0.609,0.188,1.079,0.61,1.407c0.375,0.328,0.844,0.516,1.36,0.516c0.517,0,0.985-0.188,1.361-0.516
		c0.375-0.328,0.562-0.798,0.562-1.407c0-0.517-0.188-0.985-0.562-1.36C32.285,39.011,31.816,38.824,31.301,38.824z"/>
	<path fill="#010101" d="M31.395,23.104c-0.61,0-1.126,0.188-1.501,0.61c-0.375,0.422-0.563,0.938-0.563,1.689
		c0,0.516,0.047,1.408,0.094,2.581l0.423,6.193c0.094,0.797,0.188,1.407,0.375,1.784c0.188,0.374,0.516,0.608,0.985,0.608
		s0.798-0.188,0.985-0.608c0.188-0.423,0.328-0.985,0.375-1.737l0.609-6.38c0.048-0.61,0.095-1.173,0.095-1.737
		c0-0.985-0.141-1.689-0.376-2.205C32.614,23.339,32.145,23.104,31.395,23.104z"/>
</g>
</svg>
