<svg width="54" height="51" viewBox="0 0 54 51" version="1.1" xmlns="http://www.w3.org/2000/svg" xmlns:xlink="http://www.w3.org/1999/xlink">
<title>Page 1</title>
<desc>Created using Figma</desc>
<g id="Canvas" transform="translate(2236 -1182)">
<g id="Page 1">
<g id="Group 3">
<mask id="mask0_outline" mask-type="alpha">
<g id="Clip 2">
<use xlink:href="#path0_fill" transform="translate(-2236 1182)" fill="#FFFFFF"/>
</g>
</mask>
<g id="Fill 1" mask="url(#mask0_outline)">
<use xlink:href="#path1_fill" transform="translate(-2236 1182)" fill="#FFFFFF"/>
</g>
</g>
<g id="Fill 4">
<use xlink:href="#path2_fill" transform="translate(-2211.5 1197.79)" fill="#FFFFFF"/>
</g>
<g id="Fill 6">
<use xlink:href="#path3_fill" transform="translate(-2211.6 1218.56)" fill="#FFFFFF"/>
</g>
</g>
</g>
<defs>
<path id="path0_fill" fill-rule="evenodd" d="M 53.6951 50.7018L 0 50.7018L 0 0L 53.6951 0L 53.6951 50.7018Z"/>
<path id="path1_fill" fill-rule="evenodd" d="M 50.0286 46.1221C 49.7935 46.5793 49.3504 46.8634 48.8723 46.8634L 4.82258 46.8634C 4.34446 46.8634 3.90137 46.5794 3.66635 46.1222C 3.43122 45.665 3.43856 45.1018 3.68533 44.6522L 25.7103 4.54409C 25.9492 4.10915 26.3848 3.83899 26.8474 3.83899C 27.31 3.83899 27.7457 4.10915 27.9847 4.54409L 50.0093 44.6522C 50.2564 45.1018 50.2636 45.665 50.0286 46.1221ZM 53.0033 42.6697L 30.9785 2.56166C 30.1106 0.981595 28.5278 0 26.8474 0C 25.167 0 23.5842 0.981595 22.7163 2.56177L 0.691686 42.6697C -0.205086 44.303 -0.231619 46.3491 0.622364 48.0097C 1.47656 49.6702 3.08594 50.7019 4.82264 50.7019L 48.8724 50.7019C 50.6091 50.7019 52.2187 49.6702 53.0727 48.0096C 53.9267 46.3489 53.9002 44.3027 53.0033 42.6697Z"/>
<path id="path2_fill" fill-rule="evenodd" d="M 2.36772 18.3054C 3.14609 18.3054 4.24884 17.8425 4.24884 16.7385C 4.24884 12.5005 4.70283 6.41054 4.70283 2.17243C 4.70283 0.783641 3.6326 0 2.36762 0C 1.03783 0 0 0.783526 0 2.17243C 0 6.41054 0.453996 12.5005 0.453996 16.7385C 0.454101 17.8425 1.3299 18.3054 2.36772 18.3054Z"/>
<path id="path3_fill" fill-rule="evenodd" d="M 2.49745 0C 1.07044 0 0 1.24634 0 2.74223C 0 4.20241 1.07044 5.48457 2.49745 5.48457C 3.82714 5.48457 4.96239 4.20241 4.96239 2.74223C 4.96239 1.24634 3.82704 0 2.49745 0Z"/>
</defs>
</svg>
