<?xml version="1.0" encoding="utf-8"?>
<!-- Generator: Adobe Illustrator 16.0.0, SVG Export Plug-In . SVG Version: 6.00 Build 0)  -->
<!DOCTYPE svg PUBLIC "-//W3C//DTD SVG 1.1//EN" "http://www.w3.org/Graphics/SVG/1.1/DTD/svg11.dtd">
<svg version="1.1" id="Layer_1" xmlns="http://www.w3.org/2000/svg" xmlns:xlink="http://www.w3.org/1999/xlink" x="0px" y="0px"
	 width="300px" height="300px" viewBox="0 0 300 300" enable-background="new 0 0 300 300" xml:space="preserve">
<g>
	<path fill="#FFFFFF" d="M67.485,249.442c-3.728,0-6.96-2.775-7.425-6.57c-0.075-0.576-0.69-5.879,0.06-12.93
		c0.435-4.125,4.17-7.102,8.242-6.675c4.125,0.435,7.11,4.125,6.675,8.243c-0.562,5.369-0.09,9.494-0.083,9.532
		c0.48,4.103-2.445,7.837-6.547,8.332C68.092,249.421,67.785,249.442,67.485,249.442z"/>
	<path fill="#FFFFFF" d="M73.942,219.36c-1.462,0-2.955-0.436-4.245-1.328c-3.412-2.348-4.267-7.02-1.92-10.432
		c4.905-7.117,11.79-11.888,20.46-14.176c3.945-1.05,8.108,1.336,9.165,5.34c1.058,4.006-1.335,8.107-5.34,9.166
		c-5.167,1.365-9.075,4.042-11.933,8.182C78.667,218.228,76.328,219.36,73.942,219.36z M156.697,216.997
		c-2.654-0.007-5.362-0.127-8.137-0.382c-4.125-0.382-7.155-4.035-6.78-8.16c0.383-4.117,3.968-7.155,8.16-6.78
		c6.375,0.586,12.323,0.36,18.089-0.622c4.148-0.683,7.973,2.04,8.656,6.12c0.705,4.088-2.041,7.965-6.121,8.654
		C166.058,216.608,161.393,216.997,156.697,216.997z M129.57,212.618c-0.735,0-1.47-0.105-2.212-0.338l-2.257-0.728
		c-5.797-1.928-11.228-3.277-16.095-3.997c-4.095-0.615-6.922-4.434-6.315-8.527c0.615-4.096,4.44-6.878,8.527-6.315
		c5.73,0.854,12,2.407,18.645,4.612l1.92,0.623c3.952,1.215,6.172,5.414,4.95,9.375C135.75,210.548,132.78,212.618,129.57,212.618z
		 M188.377,209.798c-2.781,0-5.467-1.553-6.75-4.223c-1.807-3.728-0.254-8.221,3.473-10.02c5.295-2.573,10.396-5.934,15.158-9.998
		c3.15-2.67,7.875-2.317,10.574,0.832c2.686,3.15,2.318,7.891-0.832,10.576c-5.737,4.889-11.91,8.955-18.346,12.074
		C190.59,209.558,189.48,209.798,188.377,209.798z"/>
	<path fill="#FFFFFF" d="M218.933,183.9c-1.553,0-3.12-0.479-4.47-1.478c-3.322-2.468-4.013-7.17-1.545-10.493
		c3.577-4.814,5.361-8.31,5.377-8.34c1.883-3.697,6.383-5.182,10.072-3.314c3.69,1.853,5.183,6.345,3.338,10.043
		c-0.098,0.18-2.325,4.611-6.742,10.566C223.492,182.851,221.228,183.9,218.933,183.9z"/>
	<path fill="#FFFFFF" d="M241.867,148.665l-4.154,3.323l14.992,104.962H47.295l18.218-127.5h138.847
		c-3.569-4.395-7.222-9.405-10.597-15H52.5L30,271.95h240l-18.84-131.88C246.105,145.2,242.37,148.26,241.867,148.665z"/>
	<path fill="#FFFFFF" d="M232.5,31.95c-20.715,0-37.5,16.785-37.5,37.5c0,37.5,37.5,67.5,37.5,67.5s37.5-30,37.5-67.5
		C270,48.735,253.215,31.95,232.5,31.95z M232.5,54.45c8.279,0,15,6.72,15,15s-6.721,15-15,15s-15-6.72-15-15
		S224.221,54.45,232.5,54.45z"/>
</g>
</svg>
