<?xml version="1.0" encoding="utf-8"?>
<!-- Generator: Adobe Illustrator 16.0.0, SVG Export Plug-In . SVG Version: 6.00 Build 0)  -->
<!DOCTYPE svg PUBLIC "-//W3C//DTD SVG 1.0//EN" "http://www.w3.org/TR/2001/REC-SVG-20010904/DTD/svg10.dtd">
<svg version="1.0"
	 id="Layer_1" xmlns:sodipodi="http://sodipodi.sourceforge.net/DTD/sodipodi-0.dtd" xmlns:inkscape="http://www.inkscape.org/namespaces/inkscape" xmlns:dc="http://purl.org/dc/elements/1.1/" xmlns:rdf="http://www.w3.org/1999/02/22-rdf-syntax-ns#" xmlns:svg="http://www.w3.org/2000/svg" xmlns:cc="http://creativecommons.org/ns#"
	 xmlns="http://www.w3.org/2000/svg" xmlns:xlink="http://www.w3.org/1999/xlink" x="0px" y="0px" width="300px" height="300px"
	 viewBox="0 0 300 300" enable-background="new 0 0 300 300" xml:space="preserve">
<g transform="translate(0,-952.36218)">
	<path d="M150,970.962c-74.675,0-135.4,60.727-135.4,135.4s60.725,135.4,135.4,135.4c74.675,0,135.4-60.727,135.4-135.4
		S224.675,970.962,150,970.962z M150,988.623c65.129,0,117.74,52.609,117.74,117.739c0,65.129-52.611,117.74-117.74,117.74
		c-65.129,0-117.739-52.611-117.739-117.74C32.261,1041.233,84.871,988.623,150,988.623z M102.904,1047.492
		c-11.38,0-20.604,9.225-20.604,20.605s9.224,20.604,20.604,20.604c11.379,0,20.604-9.224,20.604-20.604
		S114.284,1047.492,102.904,1047.492z M197.097,1047.492c-11.381,0-20.605,9.225-20.605,20.605s9.224,20.604,20.605,20.604
		c11.376,0,20.604-9.224,20.604-20.604S208.474,1047.492,197.097,1047.492z M84.323,1132.853c-2.836,0.165-5.428,1.768-6.991,4.599
		c-1.49,2.849-1.289,6.473,0.553,9.107c15.784,23.611,42.229,39.276,72.115,39.276c29.887,0,56.33-15.665,72.115-39.276
		c2.576-3.854,1.462-9.658-2.392-12.233c-3.852-2.577-9.751-1.46-12.326,2.391c-12.75,19.07-33.649,31.459-57.397,31.459
		c-23.749,0-44.648-12.39-57.398-31.459C90.21,1133.912,87.162,1132.688,84.323,1132.853z"/>
</g>
</svg>
