<svg width="66" height="47" viewBox="0 0 66 47" version="1.1" xmlns="http://www.w3.org/2000/svg" xmlns:xlink="http://www.w3.org/1999/xlink">
<title>icon (1)</title>
<desc>Created using Figma</desc>
<g id="Canvas" transform="translate(-1757 -199)">
<g id="icon (1)">
<g id="Group">
<g id="Group">
<g id="Vector">
<use xlink:href="#path0_fill" transform="translate(1778.95 218.454)" fill="#333333"/>
</g>
<g id="Vector">
<use xlink:href="#path1_fill" transform="translate(1776.54 239.874)" fill="#333333"/>
</g>
<g id="Vector">
<use xlink:href="#path2_fill" transform="translate(1757 199)" fill="#333333"/>
</g>
</g>
</g>
</g>
</g>
<defs>
<path id="path0_fill" d="M 12.2109 13.7871C 13.6978 13.7871 14.906 12.6228 14.906 11.1951C 14.906 9.77054 13.6978 8.6144 12.2109 8.6144L -1.69041e-07 8.46712e-07L 9.51561 11.3615C 9.60393 12.7139 10.7787 13.7871 12.2109 13.7871Z"/>
<path id="path1_fill" d="M 26.916 0L 0 0L 0 6.12649L 26.916 6.12649L 26.916 0Z"/>
<path id="path2_fill" d="M 56.3345 9.27069C 50.1015 3.29237 41.8145 -2.34197e-07 33 -2.34197e-07C 24.1854 -2.34197e-07 15.8982 3.29237 9.66533 9.27069C 3.43242 15.249 0 23.1975 0 31.6521C 0 37.1111 1.43387 42.3574 4.12604 47L 10.2939 47L 14.805 44.5016L 12.8128 41.1917L 7.01208 44.4042C 4.96276 40.5772 3.80508 36.242 3.80508 31.6521C 3.80508 30.8398 3.84354 30.036 3.91447 29.2409L 10.831 30.4107L 11.5229 26.6468L 4.52501 25.4633C 5.77547 20.1677 8.59489 15.4372 12.4883 11.7461L 17.2296 17.1659L 20.2822 14.7093L 15.5048 9.24855C 19.8855 6.09344 25.218 4.0924 31.0078 3.71651L 31.0078 10.9652L 34.9922 10.9652L 34.9922 3.71651C 40.782 4.09269 46.1145 6.09358 50.4953 9.2487L 45.7178 14.7093L 48.7702 17.1659L 53.5117 11.7459C 57.405 15.4372 60.2244 20.1677 61.4748 25.4632L 54.4771 26.6469L 55.1691 30.4105L 62.0852 29.2406C 62.1562 30.0358 62.1946 30.8395 62.1946 31.6518C 62.1946 36.242 61.0374 40.5773 58.9878 44.4041L 53.1869 41.1918L 51.1948 44.5016L 55.7058 46.9997L 61.874 46.9997C 64.5663 42.3571 66 37.1108 66 31.6518C 66.0002 23.1974 62.5673 15.2487 56.3345 9.27069Z"/>
</defs>
</svg>
