<svg width="68" height="48" viewBox="0 0 68 48" version="1.1" xmlns="http://www.w3.org/2000/svg" xmlns:xlink="http://www.w3.org/1999/xlink">
<title>icon (1)</title>
<desc>Created using Figma</desc>
<g id="Canvas" transform="translate(2008 -1188)">
<g id="icon (1)">
<g id="Group">
<g id="Group">
<g id="Vector">
<use xlink:href="#path0_fill" transform="translate(-1984.8 1208.3)" fill="#FFFFFF"/>
</g>
<g id="Vector">
<use xlink:href="#path1_fill" transform="translate(-1987.24 1229.59)" fill="#FFFFFF"/>
</g>
<g id="Vector">
<use xlink:href="#path2_fill" transform="translate(-2007.04 1188.96)" fill="#FFFFFF"/>
</g>
</g>
</g>
</g>
</g>
<defs>
<path id="path0_fill" d="M 12.371 13.7065C 13.8775 13.7065 15.1014 12.549 15.1014 11.1297C 15.1014 9.71341 13.8775 8.56402 12.371 8.56402L -1.71258e-07 8.41761e-07L 9.64041 11.295C 9.72989 12.6395 10.9201 13.7065 12.371 13.7065Z"/>
<path id="path1_fill" d="M 27.269 0L 0 0L 0 6.09067L 27.269 6.09067L 27.269 0Z"/>
<path id="path2_fill" d="M 57.0733 9.21648C 50.7585 3.27311 42.3628 -2.32827e-07 33.4328 -2.32827e-07C 24.5026 -2.32827e-07 16.1067 3.27311 9.79208 9.21648C 3.47743 15.1598 0 23.0619 0 31.467C 0 36.8941 1.45267 42.1097 4.18015 46.7251L 10.4289 46.7251L 14.9992 44.2414L 12.9808 40.9508L 7.10404 44.1445C 5.02784 40.3399 3.85498 36.0301 3.85498 31.467C 3.85498 30.6595 3.89395 29.8603 3.96581 29.0699L 10.9731 30.2328L 11.6741 26.4909L 4.58435 25.3144C 5.85121 20.0498 8.70761 15.3469 12.6521 11.6774L 17.4556 17.0655L 20.5481 14.6233L 15.7081 9.19447C 20.1463 6.0578 25.5487 4.06846 31.4144 3.69478L 31.4144 10.9011L 35.4512 10.9011L 35.4512 3.69478C 41.3169 4.06876 46.7193 6.05795 51.1576 9.19461L 46.3174 14.6233L 49.4098 17.0655L 54.2135 11.6772C 58.1578 15.3469 61.0142 20.0498 62.2811 25.3143L 55.1915 26.4911L 55.8927 30.2327L 62.8994 29.0696C 62.9713 29.8602 63.0103 30.6592 63.0103 31.4667C 63.0103 36.0301 61.8379 40.34 59.7614 44.1444L 53.8844 40.9509L 51.8662 44.2414L 56.4364 46.7248L 62.6854 46.7248C 65.4131 42.1094 66.8656 36.8938 66.8656 31.4667C 66.8657 23.0617 63.3878 15.1595 57.0733 9.21648Z"/>
</defs>
</svg>
