<svg width="34" height="59" viewBox="0 0 34 59" version="1.1" xmlns="http://www.w3.org/2000/svg" xmlns:xlink="http://www.w3.org/1999/xlink">
<title>noun_340051_cc</title>
<desc>Created using Figma</desc>
<g id="Canvas" transform="translate(2108 -1182)">
<g id="noun_340051_cc">
<g id="Group">
<g id="Vector">
<use xlink:href="#path0_fill" transform="translate(-2107.33 1182)" fill="#FFFFFF"/>
</g>
</g>
</g>
</g>
<defs>
<path id="path0_fill" fill-rule="evenodd" d="M 16.2082 44.7031C 13.8066 44.7031 11.8563 42.9828 11.8563 40.8681C 11.8563 38.7533 13.8066 37.0331 16.2082 37.0331C 18.6097 37.0331 20.5633 38.7533 20.5633 40.8681C 20.5633 42.9828 18.6097 44.7031 16.2082 44.7031ZM 16.2082 34.0671C 11.9506 34.0671 8.48806 37.1161 8.48806 40.8681C 8.48806 44.62 11.9506 47.669 16.2082 47.669C 20.469 47.669 23.9316 44.62 23.9316 40.8681C 23.9316 37.1161 20.469 34.0671 16.2082 34.0671ZM 16.2082 19.7652C 11.9506 19.7652 8.48806 22.8142 8.48806 26.5632C 8.48806 30.3122 11.9506 33.3642 16.2082 33.3642C 20.469 33.3642 23.9316 30.3122 23.9316 26.5632C 23.9316 22.8142 20.469 19.7652 16.2082 19.7652ZM 16.2082 16.0933C 13.8066 16.0933 11.8563 14.3731 11.8563 12.2613C 11.8563 10.1466 13.8066 8.42631 16.2082 8.42631C 18.6097 8.42631 20.5633 10.1466 20.5633 12.2613C 20.5633 14.3731 18.6097 16.0933 16.2082 16.0933ZM 16.2082 5.46035C 11.9506 5.46035 8.48806 8.50936 8.48806 12.2613C 8.48806 16.0103 11.9506 19.0593 16.2082 19.0593C 20.469 19.0593 23.9316 16.0103 23.9316 12.2613C 23.9316 8.50936 20.469 5.46035 16.2082 5.46035ZM 29.0514 47.5296C 29.0514 48.98 27.7108 50.1634 26.0637 50.1634L 6.35594 50.1634C 4.70885 50.1634 3.36491 48.98 3.36491 47.5296L 3.36491 5.59678C 3.36491 4.14642 4.70885 2.96597 6.35594 2.96597L 26.0637 2.96597C 27.7108 2.96597 29.0514 4.14642 29.0514 5.59678L 29.0514 47.5296ZM 21.5772 55.689L 10.8391 55.689L 10.8391 53.1294L 21.5772 53.1294L 21.5772 55.689ZM 26.0637 0L 6.35594 0C 2.84956 0 0 2.50921 0 5.59678L 0 47.5296C 0 50.6172 2.84956 53.1294 6.35594 53.1294L 7.47084 53.1294L 7.47084 57.172C 7.47084 57.9906 8.22534 58.655 9.15498 58.655L 23.2613 58.655C 24.191 58.655 24.9455 57.9906 24.9455 57.172L 24.9455 53.1294L 26.0637 53.1294C 29.5701 53.1294 32.4197 50.6172 32.4197 47.5296L 32.4197 5.59678C 32.4197 2.50921 29.5701 0 26.0637 0Z"/>
</defs>
</svg>
