<svg width="32" height="59" viewBox="0 0 32 59" version="1.1" xmlns="http://www.w3.org/2000/svg" xmlns:xlink="http://www.w3.org/1999/xlink">
<title>noun_340051_cc</title>
<desc>Created using Figma</desc>
<g id="Canvas" transform="translate(-1653 -191)">
<g id="noun_340051_cc">
<g id="Group">
<g id="Vector">
<use xlink:href="#path0_fill" transform="translate(1653 191)" fill="#333333"/>
</g>
</g>
</g>
</g>
<defs>
<path id="path0_fill" fill-rule="evenodd" d="M 15.9983 44.966C 13.6278 44.966 11.7029 43.2356 11.7029 41.1085C 11.7029 38.9813 13.6278 37.2509 15.9983 37.2509C 18.3688 37.2509 20.2971 38.9813 20.2971 41.1085C 20.2971 43.2356 18.3688 44.966 15.9983 44.966ZM 15.9983 34.2675C 11.7959 34.2675 8.37818 37.3344 8.37818 41.1085C 8.37818 44.8825 11.7959 47.9494 15.9983 47.9494C 20.2041 47.9494 23.6218 44.8825 23.6218 41.1085C 23.6218 37.3344 20.2041 34.2675 15.9983 34.2675ZM 15.9983 19.8815C 11.7959 19.8815 8.37818 22.9484 8.37818 26.7195C 8.37818 30.4905 11.7959 33.5604 15.9983 33.5604C 20.2041 33.5604 23.6218 30.4905 23.6218 26.7195C 23.6218 22.9484 20.2041 19.8815 15.9983 19.8815ZM 15.9983 16.188C 13.6278 16.188 11.7029 14.4576 11.7029 12.3334C 11.7029 10.2063 13.6278 8.47588 15.9983 8.47588C 18.3688 8.47588 20.2971 10.2063 20.2971 12.3334C 20.2971 14.4576 18.3688 16.188 15.9983 16.188ZM 15.9983 5.49247C 11.7959 5.49247 8.37818 8.55942 8.37818 12.3334C 8.37818 16.1045 11.7959 19.1714 15.9983 19.1714C 20.2041 19.1714 23.6218 16.1045 23.6218 12.3334C 23.6218 8.55942 20.2041 5.49247 15.9983 5.49247ZM 28.6753 47.8092C 28.6753 49.2681 27.3521 50.4585 25.7263 50.4585L 6.27366 50.4585C 4.64789 50.4585 3.32135 49.2681 3.32135 47.8092L 3.32135 5.6297C 3.32135 4.17081 4.64789 2.98341 6.27366 2.98341L 25.7263 2.98341C 27.3521 2.98341 28.6753 4.17081 28.6753 5.6297L 28.6753 47.8092ZM 21.2979 56.0166L 10.6988 56.0166L 10.6988 53.4419L 21.2979 53.4419L 21.2979 56.0166ZM 25.7263 0L 6.27366 0C 2.81267 0 0 2.52397 0 5.6297L 0 47.8092C 0 50.9149 2.81267 53.4419 6.27366 53.4419L 7.37413 53.4419L 7.37413 57.5083C 7.37413 58.3317 8.11886 59 9.03647 59L 22.9602 59C 23.8778 59 24.6225 58.3317 24.6225 57.5083L 24.6225 53.4419L 25.7263 53.4419C 29.1873 53.4419 32 50.9149 32 47.8092L 32 5.6297C 32 2.52397 29.1873 0 25.7263 0Z"/>
</defs>
</svg>
