<?xml version="1.0" encoding="utf-8"?>
<!-- Generator: Adobe Illustrator 16.0.0, SVG Export Plug-In . SVG Version: 6.00 Build 0)  -->
<!DOCTYPE svg PUBLIC "-//W3C//DTD SVG 1.1//EN" "http://www.w3.org/Graphics/SVG/1.1/DTD/svg11.dtd">
<svg version="1.1" id="Layer_1" xmlns="http://www.w3.org/2000/svg" xmlns:xlink="http://www.w3.org/1999/xlink" x="0px" y="0px"
	 width="60px" height="60px" viewBox="0 0 60 60" enable-background="new 0 0 60 60" xml:space="preserve">
<g>
	<path fill="#FFFFFF" d="M23.404,30.566c0,3.644,2.952,6.596,6.596,6.596c3.643,0,6.596-2.952,6.596-6.596
		c0-3.644-2.953-6.596-6.596-6.596C26.356,23.97,23.404,26.922,23.404,30.566L23.404,30.566z M52.93,35.402
		c-0.063-1.192-1.949-2.826-5.216-2.071c-2.387,0.564-5.654,2.574-8.981,5.904c-2.452,2.448-4.65,6.154-4.65,11.998
		C34.147,58.205,53.243,44.95,52.93,35.402L52.93,35.402z M7.009,25.353c-0.126,1.13,2.198,1.004,3.643,0.816
		c4.522-0.816,12.124-4.711,19.725-4.711c5.339,0,11.058,2.513,14.889,3.643c1.319,0.377,3.203,1.068,5.904,1.194
		c1.005,0.062,2.009-0.189,1.947-1.068C52.738,19.008,44.7,6.632,30,6.632C18.818,6.632,7.888,15.992,7.009,25.353L7.009,25.353z
		 M7.197,35.402C6.883,44.95,26.042,58.205,26.042,51.233c0-5.844-2.199-9.55-4.649-11.998c-3.329-3.267-6.532-5.34-8.983-5.844
		C9.145,32.639,7.26,34.21,7.197,35.402L7.197,35.402z M1.732,30C1.732,14.359,14.358,1.732,30,1.732
		c15.641,0,28.268,12.626,28.268,28.268c0,15.643-12.627,28.267-28.268,28.267C14.358,58.268,1.732,45.644,1.732,30L1.732,30z
		 M25.414,30.566c0-2.513,2.073-4.586,4.586-4.586s4.587,2.074,4.587,4.586S32.513,35.152,30,35.152S25.414,33.141,25.414,30.566
		L25.414,30.566z"/>
	<path fill="#FFFFFF" d="M23.404,30.566c0,3.644,2.952,6.596,6.596,6.596c3.643,0,6.596-2.952,6.596-6.596
		c0-3.644-2.953-6.596-6.596-6.596C26.356,23.97,23.404,26.922,23.404,30.566L23.404,30.566z M52.93,35.402
		c-0.063-1.192-1.949-2.826-5.216-2.071c-2.387,0.564-5.654,2.574-8.981,5.904c-2.452,2.448-4.65,6.154-4.65,11.998
		C34.147,58.205,53.243,44.95,52.93,35.402L52.93,35.402z M7.009,25.353c-0.126,1.13,2.198,1.004,3.643,0.816
		c4.522-0.816,12.124-4.711,19.725-4.711c5.339,0,11.058,2.513,14.889,3.643c1.319,0.377,3.203,1.068,5.904,1.194
		c1.005,0.062,2.009-0.189,1.947-1.068C52.738,19.008,44.7,6.632,30,6.632C18.818,6.632,7.888,15.992,7.009,25.353L7.009,25.353z
		 M7.197,35.402C6.883,44.95,26.042,58.205,26.042,51.233c0-5.844-2.199-9.55-4.649-11.998c-3.329-3.267-6.532-5.34-8.983-5.844
		C9.145,32.639,7.26,34.21,7.197,35.402L7.197,35.402z M1.732,30C1.732,14.359,14.358,1.732,30,1.732
		c15.641,0,28.268,12.626,28.268,28.268c0,15.643-12.627,28.267-28.268,28.267C14.358,58.268,1.732,45.644,1.732,30L1.732,30z
		 M25.414,30.566c0-2.513,2.073-4.586,4.586-4.586s4.587,2.074,4.587,4.586S32.513,35.152,30,35.152S25.414,33.141,25.414,30.566
		L25.414,30.566z"/>
</g>
</svg>
